PathFileType	4	(X/Y/Z)	S:\OneDrive - The University of Tokyo\ìåëÂéˆã∆\ÉoÉCÉÅÉJ\ë™íË\hirabayashi_2\Trimmed\Trimmed_BarR40kg1.trc
DataRate	CameraRate	NumFrames	NumMarkers	Units	OrigDataRate	OrigDataStartFrame	OrigNumFrames
200.00	200.00	       22	12	mm	200.00	257	       293
Frame#	Time	BarR0			BarR50			BarR100			BarR130			BarR180			BarR230			BarL0			BarL50			BarL100			BarL130			BarL180			BarL230			
		X1	Y1	Z1	X2	Y2	Z2	X3	Y3	Z3	X4	Y4	Z4	X5	Y5	Z5	X6	Y6	Z6	X7	Y7	Z7	X8	Y8	Z8	X9	Y9	Z9	X10	Y10	Z10	X11	Y11	Z11	X12	Y12	Z12	

257	1.280	-576.50305	2754.31616	1664.18518	-603.61719	2305.09009	1653.44177	-637.40991	1851.40173	1646.81824	-660.76990	1349.62244	1646.73669	-689.72992	903.03278	1653.55896	-713.84686	455.35141	1663.99048	-1113.55457	2808.14575	1664.68140	-1140.72156	2356.49194	1667.85693	-1171.19788	1906.04468	1668.76147	-1198.98901	1404.28137	1669.13123	-1226.76355	952.64673	1668.31653	-1244.53430	506.39792	1667.64539	
258	1.285	-576.49109	2754.30420	1664.19019	-603.64154	2305.08081	1653.42981	-637.39789	1851.38171	1646.82935	-660.76208	1349.61121	1646.73718	-689.74738	903.01544	1653.56189	-713.83441	455.34634	1663.99695	-1113.57886	2808.13940	1664.69238	-1140.71997	2356.47388	1667.88293	-1171.16992	1906.05859	1668.76221	-1198.98694	1404.27563	1669.14038	-1226.75977	952.63470	1668.31970	-1244.53308	506.40878	1667.64917	
259	1.290	-576.48480	2754.30640	1664.18701	-603.62054	2305.06445	1653.44238	-637.39093	1851.38599	1646.83203	-660.78070	1349.63013	1646.72815	-689.72125	903.01495	1653.55945	-713.84021	455.33612	1663.98938	-1113.54211	2808.14795	1664.68970	-1140.71436	2356.49609	1667.86792	-1171.20142	1906.04089	1668.75879	-1198.98865	1404.28381	1669.14197	-1226.74805	952.64410	1668.30847	-1244.54785	506.41644	1667.65601	
260	1.295	-576.50519	2754.31055	1664.18030	-603.62988	2305.07422	1653.44202	-637.38879	1851.36279	1646.82312	-660.75793	1349.62585	1646.73352	-689.72394	903.01117	1653.56177	-713.85175	455.34436	1663.98779	-1113.53503	2808.17993	1664.70752	-1140.71375	2356.46338	1667.87500	-1171.19324	1906.04602	1668.76892	-1198.97656	1404.27478	1669.14355	-1226.74927	952.65021	1668.32056	-1244.53235	506.38644	1667.66138	
261	1.300	-576.48682	2754.29199	1664.19348	-603.61835	2305.07227	1653.45276	-637.37616	1851.40857	1646.80908	-660.79077	1349.61963	1646.73254	-689.73804	903.02979	1653.56470	-713.84125	455.34677	1663.99500	-1113.56213	2808.16260	1664.67554	-1140.70557	2356.47998	1667.86621	-1171.19336	1906.07178	1668.75989	-1198.98584	1404.25891	1669.13672	-1226.75586	952.65723	1668.32104	-1244.52661	506.39261	1667.65173	
262	1.305	-576.49554	2754.32959	1664.18628	-603.58423	2305.04736	1653.44946	-637.41296	1851.41699	1646.81750	-660.78302	1349.63440	1646.72791	-689.72040	903.01758	1653.56653	-713.84143	455.32498	1663.99768	-1113.52759	2808.13623	1664.68188	-1140.70605	2356.44531	1667.86292	-1171.18457	1906.04333	1668.76953	-1198.99084	1404.27136	1669.15930	-1226.75964	952.64966	1668.32361	-1244.52856	506.40469	1667.65320	
263	1.310	-576.48511	2754.31519	1664.19556	-603.60840	2305.07544	1653.45007	-637.42352	1851.41064	1646.80664	-660.77417	1349.60791	1646.72473	-689.74469	903.00372	1653.54346	-713.83173	455.32950	1663.99219	-1113.53735	2808.14331	1664.68958	-1140.70947	2356.48438	1667.87280	-1171.19043	1906.04871	1668.76038	-1198.97986	1404.25696	1669.14880	-1226.76770	952.63562	1668.31726	-1244.52246	506.38828	1667.64661	
264	1.315	-576.47205	2754.31323	1664.18701	-603.62537	2305.08008	1653.45886	-637.40082	1851.40063	1646.79993	-660.77856	1349.62964	1646.73730	-689.73956	903.05658	1653.55286	-713.84369	455.33276	1663.99158	-1113.54248	2808.17920	1664.69385	-1140.70459	2356.46411	1667.87354	-1171.17407	1906.04187	1668.79053	-1198.98865	1404.24133	1669.14856	-1226.75525	952.65558	1668.32031	-1244.54773	506.41006	1667.65430	
265	1.320	-576.51666	2754.32397	1664.18713	-603.60498	2305.10059	1653.44446	-637.39618	1851.38342	1646.80725	-660.77838	1349.63440	1646.72949	-689.74695	902.99640	1653.54297	-713.83508	455.33304	1663.98926	-1113.54504	2808.13550	1664.68140	-1140.70032	2356.47998	1667.89160	-1171.16833	1906.06738	1668.76135	-1198.96936	1404.25610	1669.14294	-1226.76038	952.63623	1668.31921	-1244.52551	506.39709	1667.65918	
266	1.325	-576.49359	2754.30957	1664.17883	-603.62000	2305.07837	1653.44324	-637.42163	1851.38806	1646.79395	-660.77173	1349.63892	1646.72839	-689.73224	903.01428	1653.55249	-713.84027	455.33063	1663.99146	-1113.54846	2808.16797	1664.68115	-1140.71497	2356.48950	1667.88013	-1171.18115	1906.04321	1668.76868	-1198.95447	1404.30298	1669.18872	-1226.75806	952.64441	1668.31006	-1244.53320	506.41425	1667.64099	
267	1.330	-576.48907	2754.31543	1664.17737	-603.62286	2305.07935	1653.45276	-637.38190	1851.41919	1646.83044	-660.76886	1349.63660	1646.74561	-689.73853	903.02808	1653.55054	-713.83258	455.35785	1663.99634	-1113.54785	2808.15454	1664.69043	-1140.70557	2356.47754	1667.88501	-1171.17407	1906.03271	1668.77954	-1198.98645	1404.29077	1669.14099	-1226.76013	952.63434	1668.31091	-1244.52136	506.38995	1667.64624	
268	1.335	-576.48145	2754.30225	1664.18921	-603.62225	2305.07324	1653.43152	-637.42017	1851.40527	1646.79626	-660.77069	1349.63501	1646.73328	-689.72980	903.02081	1653.55481	-713.82642	455.33481	1663.98621	-1113.53235	2808.15747	1664.69531	-1140.69434	2356.47461	1667.86145	-1171.19385	1906.04321	1668.77051	-1198.96960	1404.27271	1669.14124	-1226.74768	952.64801	1668.33203	-1244.52930	506.40961	1667.65051	
269	1.340	-576.48456	2754.30469	1664.19861	-603.59595	2305.08057	1653.45886	-637.41217	1851.43188	1646.80676	-660.77533	1349.62964	1646.73694	-689.72565	903.00586	1653.55212	-713.83575	455.33252	1663.98950	-1113.53235	2808.13867	1664.69080	-1140.70251	2356.47729	1667.87000	-1171.19299	1906.05859	1668.76831	-1198.99902	1404.26123	1669.14148	-1226.75500	952.65686	1668.33203	-1244.51685	506.40887	1667.66052	
270	1.345	-576.48022	2754.32690	1664.18884	-603.61755	2305.05664	1653.42224	-637.42456	1851.39075	1646.80176	-660.77991	1349.61255	1646.73975	-689.73706	903.00372	1653.55334	-713.84521	455.35083	1663.98547	-1113.56897	2808.15112	1664.67859	-1140.71094	2356.48779	1667.88110	-1171.17639	1906.04932	1668.76758	-1198.97766	1404.28601	1669.14929	-1226.75037	952.65387	1668.32568	-1244.54102	506.40848	1667.64941	
271	1.350	-576.47833	2754.29639	1664.18872	-603.63306	2305.07104	1653.43140	-637.40155	1851.41211	1646.80774	-660.80396	1349.62988	1646.72473	-689.71637	903.02875	1653.55273	-713.83752	455.33896	1663.98669	-1113.54675	2808.15942	1664.67993	-1140.69873	2356.47070	1667.85376	-1171.18152	1906.04272	1668.77307	-1198.98645	1404.26379	1669.14258	-1226.75183	952.62982	1668.32300	-1244.51770	506.40356	1667.64600	
272	1.355	-576.47479	2754.30591	1664.19165	-603.60681	2305.07617	1653.43140	-637.38904	1851.41650	1646.81006	-660.77252	1349.63782	1646.72607	-689.73962	903.02258	1653.54504	-713.83777	455.36359	1663.99426	-1113.53979	2808.18188	1664.67847	-1140.69128	2356.48315	1667.87695	-1171.16980	1906.04248	1668.76941	-1198.96887	1404.27087	1669.14294	-1226.75427	952.64319	1668.32422	-1244.52014	506.38388	1667.65869	
273	1.360	-576.48383	2754.30737	1664.17224	-603.63409	2305.07349	1653.45129	-637.38580	1851.41602	1646.80444	-660.76215	1349.62451	1646.72546	-689.71930	903.02148	1653.55432	-713.84088	455.34457	1663.98376	-1113.56702	2808.14185	1664.68909	-1140.71777	2356.48633	1667.88062	-1171.18689	1906.05688	1668.76685	-1198.97314	1404.24866	1669.14612	-1226.75842	952.64984	1668.31677	-1244.52063	506.36682	1667.65967	
274	1.365	-576.49841	2754.31445	1664.19666	-603.61096	2305.04102	1653.41919	-637.42200	1851.41309	1646.80432	-660.75177	1349.62500	1646.72937	-689.72888	903.01709	1653.55884	-713.82690	455.36053	1663.99146	-1113.55359	2808.18115	1664.68054	-1140.70105	2356.48804	1667.87207	-1171.17334	1906.04077	1668.77112	-1198.98706	1404.24219	1669.14197	-1226.74841	952.64166	1668.32617	-1244.52319	506.42392	1667.65454	
275	1.370	-576.49030	2754.31934	1664.19763	-603.59912	2305.09912	1653.44006	-637.39508	1851.40051	1646.82007	-660.77734	1349.63464	1646.72974	-689.73096	903.02289	1653.54858	-713.85046	455.33160	1663.98706	-1113.50781	2808.15356	1664.69727	-1140.70068	2356.49194	1667.87183	-1171.18298	1906.06287	1668.76843	-1198.98486	1404.25256	1669.13550	-1226.73682	952.63910	1668.32166	-1244.53564	506.40039	1667.65564	
276	1.375	-576.49237	2754.30811	1664.19824	-603.61023	2305.08496	1653.43738	-637.38916	1851.41541	1646.83655	-660.76294	1349.63562	1646.72925	-689.74133	903.01233	1653.56238	-713.84717	455.35190	1663.99426	-1113.55847	2808.19067	1664.70825	-1140.69873	2356.47778	1667.86060	-1171.18433	1906.07019	1668.75842	-1198.99451	1404.25195	1669.14563	-1226.76636	952.63892	1668.31592	-1244.53674	506.39594	1667.65869	
277	1.380	-576.49243	2754.31494	1664.18579	-603.64404	2305.05566	1653.43286	-637.39459	1851.40393	1646.82080	-660.78113	1349.62268	1646.73816	-689.72644	903.01135	1653.57898	-713.82404	455.32751	1663.98352	-1113.56580	2808.16895	1664.68140	-1140.69116	2356.49561	1667.87659	-1171.17041	1906.06726	1668.75464	-1198.98926	1404.24121	1669.14307	-1226.76050	952.64270	1668.32141	-1244.50964	506.37897	1667.64978	
278	1.385	-576.47510	2754.30688	1664.18494	-603.61487	2305.05981	1653.44275	-637.41351	1851.39709	1646.80139	-660.75342	1349.62939	1646.73047	-689.71930	903.01575	1653.54578	-713.83484	455.33737	1663.97900	-1113.55225	2808.17334	1664.68311	-1140.70459	2356.48486	1667.86609	-1171.18591	1906.03967	1668.75562	-1198.99182	1404.25574	1669.14172	-1226.74255	952.63971	1668.30750	-1244.52417	506.39838	1667.64587	
